<svg width="10" height="16" viewBox="0 0 10 16" fill="none" xmlns="http://www.w3.org/2000/svg">
<path d="M1.17917 8.78859C1.00379 8.61342 0.905141 8.37577 0.904922 8.12789V7.65418C0.907795 7.40684 1.00604 7.17015 1.17917 6.99348L7.58669 0.598433C7.70373 0.480435 7.86304 0.414062 8.02923 0.414062C8.19543 0.414062 8.35474 0.480435 8.47178 0.598433L9.35686 1.48352C9.47412 1.59841 9.5402 1.75566 9.5402 1.91983C9.5402 2.08399 9.47412 2.24125 9.35686 2.35614L3.8095 7.89104L9.35686 13.4259C9.47486 13.543 9.54123 13.7023 9.54123 13.8685C9.54123 14.0347 9.47486 14.194 9.35686 14.311L8.47178 15.1836C8.35474 15.3016 8.19543 15.368 8.02923 15.368C7.86304 15.368 7.70373 15.3016 7.58669 15.1836L1.17917 8.78859Z" fill="#BCBCBC"/>
</svg>
